<svg version="1.1" id="Layer_1" xmlns="http://www.w3.org/2000/svg" xmlns:xlink="http://www.w3.org/1999/xlink" x="0px" y="0px"
	 width="100%" viewBox="0 0 512 512" enable-background="new 0 0 512 512" xml:space="preserve">
<path fill="#000000" opacity="1.000000" stroke="none" 
	d="
M513.000000,200.625000 
	C503.110016,207.473923 494.806519,215.889954 485.723755,223.350677 
	C473.684113,233.240204 461.828644,243.354919 449.943298,253.431030 
	C437.924072,263.620667 425.974243,273.892151 413.976990,284.107819 
	C401.735016,294.531891 389.607635,305.097778 377.142090,315.247894 
	C373.032471,318.594147 371.726196,321.509033 373.133911,326.970795 
	C387.777710,383.787537 402.079132,440.692535 416.492737,497.568695 
	C416.975494,499.473541 417.639862,501.332397 418.210388,503.182800 
	C415.957947,504.881561 414.547852,503.294464 413.118744,502.387268 
	C369.272339,474.553253 325.449219,446.682556 281.598877,418.854706 
	C274.594666,414.409790 267.382446,410.286774 260.461365,405.719513 
	C257.613983,403.840454 255.504303,404.289154 252.896576,405.967590 
	C242.021545,412.967224 231.061508,419.834961 220.122025,426.734192 
	C186.446045,447.972809 152.759552,469.194733 119.091415,490.445801 
	C113.058853,494.253448 107.085571,498.155396 101.104523,502.044006 
	C99.724937,502.940918 98.484337,504.103180 96.404900,503.888062 
	C95.358788,501.333374 97.047531,499.166290 97.613251,496.911835 
	C105.567604,465.212982 113.558601,433.523132 121.611473,401.849152 
	C128.109863,376.289246 134.645996,350.738525 141.321808,325.224670 
	C142.245132,321.695831 141.612640,319.209564 138.863022,316.909180 
	C122.462364,303.188171 106.087227,289.436310 89.753868,275.635254 
	C76.198799,264.181732 62.720047,252.637909 49.194786,241.149048 
	C33.771301,228.047760 18.332809,214.964157 2.906437,201.866287 
	C2.400234,201.436523 1.955036,200.934891 1.240703,200.233368 
	C1.000000,199.250000 1.000000,198.500000 1.000000,197.375000 
	C8.966631,198.987167 16.923103,196.813339 24.775816,196.287125 
	C31.838964,195.813812 38.979214,195.718689 46.077003,194.907867 
	C58.739758,193.461349 71.561775,193.466064 84.300339,192.612305 
	C101.813309,191.438538 119.304405,189.939133 136.816696,188.753952 
	C149.388428,187.903137 161.974503,187.201706 174.565369,186.736954 
	C177.924911,186.612946 181.110031,185.652451 184.432846,185.556854 
	C186.572037,185.495300 186.960678,183.703033 187.571243,182.169113 
	C197.938766,156.123322 208.320908,130.083328 218.668671,104.029694 
	C230.484802,74.279022 242.261841,44.512829 254.091660,14.767612 
	C254.744659,13.125633 255.725250,11.613932 256.929321,9.327781 
	C260.685608,14.988504 262.217407,20.907640 264.441467,26.461950 
	C283.302094,73.564362 302.070160,120.703857 320.840729,167.842285 
	C322.191101,171.233337 323.611603,174.633636 324.526031,178.152679 
	C326.029449,183.938187 329.678925,186.655106 335.473328,186.580551 
	C348.437561,186.413742 361.295898,188.099762 374.213257,188.760925 
	C391.902527,189.666321 409.550964,191.346603 427.225739,192.566040 
	C438.967010,193.376083 450.725677,193.931030 462.473206,194.654053 
	C479.016235,195.672241 495.556152,196.740295 512.548706,197.893524 
	C513.000000,198.750000 513.000000,199.500000 513.000000,200.625000 
M133.268570,270.183746 
	C147.407333,282.220245 161.482162,294.333527 175.752228,306.212311 
	C177.952759,308.044098 178.296875,309.411530 177.613342,312.066986 
	C168.939041,345.765533 160.411621,379.501831 151.846512,413.228455 
	C150.091339,420.139679 148.334900,427.050568 146.223495,435.361084 
	C160.918457,426.120117 174.233963,417.758392 187.537643,409.377899 
	C209.735382,395.394745 231.947876,381.434662 254.082916,367.352875 
	C256.198639,366.006927 257.542419,365.810272 259.792694,367.241241 
	C287.506104,384.864746 315.310883,402.344574 343.095123,419.856720 
	C350.896790,424.774017 358.708282,429.675720 367.758331,435.366150 
	C365.341858,425.767487 363.278503,417.507629 361.182220,409.256134 
	C352.943024,376.824554 344.732208,344.385590 336.376465,311.984009 
	C335.685547,309.304749 336.059845,307.898438 338.298492,306.130188 
	C345.449799,300.481537 352.330475,294.489502 359.297852,288.608978 
	C380.575256,270.650604 401.953125,252.807983 423.004791,234.588623 
	C426.336060,231.705566 430.551300,229.406036 432.892517,225.345184 
	C431.380951,224.036224 429.991608,224.484894 428.707062,224.367920 
	C417.476410,223.345276 406.200745,222.976959 394.961700,222.191193 
	C375.293335,220.816086 355.639618,219.280685 335.942169,218.324081 
	C326.845734,217.882324 317.775330,216.923752 308.681976,216.388962 
	C306.012054,216.231934 304.821686,214.731079 303.988037,212.632751 
	C291.501801,181.205795 279.046844,149.766403 266.556152,118.341232 
	C263.586761,110.870613 260.513458,103.441315 257.021118,94.843712 
	C254.171906,101.773766 251.747864,107.502159 249.452026,113.281479 
	C236.359802,146.238831 223.294907,179.207031 210.233093,212.176453 
	C209.336548,214.439377 208.347260,216.507172 205.383560,216.333893 
	C201.710098,216.119125 198.119141,217.033936 194.501602,217.234543 
	C173.981613,218.372452 153.476318,219.660309 132.985352,221.267593 
	C119.758965,222.305069 106.478783,222.641174 93.231194,223.433533 
	C89.202721,223.674484 85.202530,224.388382 79.928787,225.041855 
	C98.128746,240.420090 115.445801,255.052292 133.268570,270.183746 
z"/>
</svg>