<svg version="1.1" id="Layer_1" xmlns="http://www.w3.org/2000/svg" xmlns:xlink="http://www.w3.org/1999/xlink" x="0px" y="0px"
	 width="100%" viewBox="0 0 512 512" enable-background="new 0 0 512 512" xml:space="preserve">
<path fill="#000000" opacity="1.000000" stroke="none" 
	d="
M513.000000,198.000000 
	C513.000000,198.750000 513.000000,199.500000 512.717529,200.813751 
	C510.429138,202.848999 508.333954,204.214172 506.432678,205.810303 
	C498.174500,212.742996 489.963196,219.731644 481.752869,226.721130 
	C467.598785,238.770493 453.481354,250.863037 439.303741,262.884705 
	C429.562897,271.144257 419.709991,279.271667 409.973083,287.535828 
	C398.209778,297.519928 386.521393,307.592224 374.788147,317.611847 
	C372.339386,319.702972 371.972931,322.134155 372.766602,325.221375 
	C379.212708,350.296356 385.534454,375.403290 391.903168,400.498169 
	C400.150085,432.993958 408.397491,465.489594 416.677032,497.977051 
	C417.164917,499.891357 417.912323,501.730927 416.498352,503.611481 
	C413.199951,503.362091 411.118500,500.969788 408.641479,499.410461 
	C374.740021,478.068787 340.878632,456.663513 306.991180,435.299591 
	C291.521027,425.546631 275.996887,415.879181 260.542175,406.101959 
	C257.658661,404.277771 255.302734,404.209473 252.387863,406.337219 
	C247.835220,409.660370 242.904419,412.465790 238.131012,415.486053 
	C193.198074,443.916595 148.271317,472.356934 103.309784,500.742188 
	C101.194557,502.077637 99.223213,504.053955 95.784668,503.832550 
	C97.262764,496.042236 99.466637,488.796204 101.349609,481.457062 
	C114.718147,429.351196 127.928017,377.204651 141.234802,325.082916 
	C142.021713,322.000641 141.477875,319.500122 139.063080,317.438690 
	C132.244461,311.617859 125.432785,305.788757 118.593781,299.991913 
	C103.907822,287.543793 89.207893,275.112122 74.510849,262.677094 
	C62.093788,252.171143 49.640144,241.708130 37.262714,231.155685 
	C25.135696,220.816727 13.084488,210.388855 0.999999,200.000000 
	C1.000000,199.250000 1.000000,198.500000 1.388404,197.490509 
	C2.431849,197.339310 3.095629,197.579010 3.740619,197.536133 
	C13.000898,196.920410 22.250021,196.065399 31.518978,195.668045 
	C46.266335,195.035828 60.969124,193.875427 75.683304,192.756348 
	C96.679565,191.159515 117.705032,189.935989 138.724396,188.657623 
	C151.806686,187.861969 164.902176,187.285690 177.988754,186.557388 
	C183.289047,186.262405 186.792847,184.355682 188.932602,178.630615 
	C196.955338,157.165268 205.636642,135.945374 214.122986,114.654152 
	C227.529114,81.019630 240.976562,47.401562 254.409149,13.777581 
	C254.999359,12.300179 255.199890,10.516649 257.229675,10.018305 
	C258.807983,11.217557 259.220673,13.089231 259.864471,14.704459 
	C269.759674,39.530479 279.537048,64.403412 289.416229,89.235840 
	C301.634979,119.949142 313.951752,150.623474 326.127991,181.353561 
	C327.164368,183.969086 328.541870,185.105942 331.375427,185.782394 
	C338.262482,187.426529 345.268372,186.701950 352.190735,187.349823 
	C370.013489,189.017883 387.956726,189.359848 405.809021,190.772552 
	C411.781433,191.245163 417.749176,191.312469 423.706635,191.736694 
	C441.062103,192.972488 458.407379,194.351273 475.763062,195.583603 
	C488.170044,196.464539 500.587311,197.199753 513.000000,198.000000 
z"/>
</svg>